PathFileType	4	(X/Y/Z)	output.trc
DataRate	CameraRate	NumFrames	NumMarkers	Units	OrigDataRate	OrigDataStartFrame	OrigNumFrames
100	100	15	23	m	100	3640	4852
Frame#	Time	C7			T8			EL			EM			US			RS			AA			Fore_Clus_1			Fore_Clus_2			Fore_Clus_3			Fore_Clus_4			Hum_Clus_1			Hum_Clus_2			Hum_Clus_3			Hum_Clus_4			Thor_Clus_1			Thor_Clus_2			Thor_Clus_3			Thor_Clus_4			IJ			PX			GH			Thor_Clus_5		
		X1	Y1	Z1	X2	Y2	Z2	X3	Y3	Z3	X4	Y4	Z4	X5	Y5	Z5	X6	Y6	Z6	X7	Y7	Z7	X8	Y8	Z8	X9	Y9	Z9	X10	Y10	Z10	X11	Y11	Z11	X12	Y12	Z12	X13	Y13	Z13	X14	Y14	Z14	X15	Y15	Z15	X16	Y16	Z16	X17	Y17	Z17	X18	Y18	Z18	X19	Y19	Z19	X20	Y20	Z20	X21	Y21	Z21	X22	Y22	Z22	X23	Y23	Z23
3639	36.390000	-0.018288	1.599885	-0.072867	-0.051800	1.337956	-0.141001	-0.396472	1.374536	0.152923	-0.350998	1.318611	0.177635	-0.610561	1.292615	0.315175	-0.566510	1.296840	0.360503	-0.178022	1.515054	0.034654	-0.578227	1.346235	0.294669	-0.619910	1.330681	0.326674	-0.602895	1.333449	0.349095	-0.551483	1.350903	0.330251	-0.339983	1.472486	0.128952	-0.346089	1.443101	0.076510	-0.311402	1.480339	0.038455	-0.293412	1.510953	0.086047	0.096902	1.470703	0.061414	0.050556	1.417279	0.108243	0.056540	1.468342	0.081907	0.107857	1.421061	0.078649	0.036738	1.501817	0.018374	0.054525	1.312932	0.053473	-0.156500	1.506480	0.019135	0.045585	1.439563	0.100322
3640	36.400000	-0.019429	1.599693	-0.071910	-0.052140	1.337916	-0.141013	-0.394431	1.366274	0.152350	-0.348031	1.310455	0.175536	-0.606107	1.276570	0.313369	-0.562039	1.281073	0.358654	-0.178617	1.513854	0.035621	-0.575155	1.331306	0.293198	-0.616345	1.314246	0.325371	-0.599399	1.316944	0.347890	-0.548387	1.335970	0.329242	-0.339507	1.465557	0.130367	-0.345444	1.437290	0.077412	-0.311395	1.476020	0.040211	-0.293602	1.505716	0.088054	0.096482	1.470391	0.061656	0.050457	1.416627	0.108293	0.056208	1.467768	0.082227	0.107676	1.420675	0.078611	0.036153	1.501463	0.018820	0.054702	1.312505	0.053127	-0.157079	1.504721	0.020474	0.045376	1.438952	0.100429
3641	36.410000	-0.020582	1.599523	-0.070916	-0.052498	1.337917	-0.141029	-0.392240	1.358093	0.151713	-0.344925	1.302406	0.173311	-0.601312	1.260690	0.311392	-0.557215	1.265433	0.356624	-0.179223	1.512666	0.036605	-0.571574	1.316290	0.292208	-0.612545	1.298126	0.323980	-0.595436	1.300770	0.346075	-0.545034	1.321287	0.328067	-0.338815	1.458633	0.131934	-0.344890	1.431514	0.078132	-0.311537	1.471598	0.041790	-0.293712	1.500353	0.090285	0.096052	1.470086	0.061864	0.050395	1.415872	0.108421	0.055896	1.467222	0.082472	0.107496	1.420294	0.078550	0.035553	1.501122	0.019286	0.054859	1.312093	0.052772	-0.157648	1.502942	0.021788	0.045165	1.438269	0.100629
3642	36.420000	-0.021756	1.599369	-0.069886	-0.052881	1.337948	-0.141038	-0.389902	1.349998	0.151008	-0.341682	1.294471	0.170956	-0.596190	1.244992	0.309242	-0.552049	1.249939	0.354409	-0.179843	1.511483	0.037614	-0.567776	1.301631	0.290701	-0.607943	1.281638	0.322351	-0.591389	1.284639	0.345147	-0.541108	1.306508	0.326757	-0.337987	1.451723	0.133244	-0.343938	1.425721	0.078915	-0.311462	1.467254	0.043438	-0.293704	1.494976	0.092414	0.095639	1.469790	0.062057	0.050247	1.415218	0.108547	0.055540	1.466701	0.082769	0.107283	1.419913	0.078532	0.034934	1.500790	0.019774	0.054998	1.311693	0.052415	-0.158208	1.501146	0.023074	0.044974	1.437599	0.100840
3643	36.430000	-0.022947	1.599228	-0.068824	-0.053278	1.338008	-0.141048	-0.387426	1.341995	0.150231	-0.338317	1.286661	0.168470	-0.590752	1.229490	0.306908	-0.546559	1.234623	0.352003	-0.180475	1.510298	0.038640	-0.563559	1.286981	0.289491	-0.603256	1.265721	0.320629	-0.586311	1.268479	0.343175	-0.536733	1.291668	0.325322	-0.336991	1.444818	0.134528	-0.343003	1.420043	0.079705	-0.311408	1.462867	0.044948	-0.293701	1.489668	0.094465	0.095171	1.469478	0.062322	0.050160	1.414549	0.108651	0.055148	1.466157	0.083086	0.107113	1.419583	0.078563	0.034300	1.500467	0.020280	0.055124	1.311304	0.052051	-0.158757	1.499331	0.024332	0.044852	1.436985	0.101081
3644	36.440000	-0.024157	1.599095	-0.067733	-0.053687	1.338089	-0.141056	-0.384820	1.334091	0.149376	-0.334838	1.278986	0.165854	-0.585010	1.214201	0.304382	-0.540761	1.219510	0.349402	-0.181118	1.509105	0.039679	-0.559187	1.272568	0.287754	-0.598020	1.249870	0.318717	-0.581432	1.252742	0.341652	-0.532162	1.277133	0.323601	-0.336026	1.437922	0.135886	-0.342018	1.414384	0.080409	-0.311310	1.458473	0.046460	-0.293589	1.484446	0.096430	0.094728	1.469145	0.062556	0.050079	1.414001	0.108810	0.054856	1.465632	0.083392	0.106954	1.419269	0.078611	0.033650	1.500150	0.020802	0.055242	1.310925	0.051682	-0.159293	1.497499	0.025562	0.044711	1.436373	0.101269
3645	36.450000	-0.025390	1.598962	-0.066617	-0.054114	1.338182	-0.141055	-0.382088	1.326291	0.148438	-0.331252	1.271457	0.163108	-0.578976	1.199139	0.301659	-0.534673	1.204627	0.346603	-0.181772	1.507903	0.040738	-0.554066	1.258278	0.285985	-0.592720	1.234337	0.316764	-0.576179	1.237246	0.339635	-0.527328	1.262905	0.321793	-0.334772	1.431114	0.136952	-0.340894	1.408833	0.081030	-0.311043	1.454097	0.047890	-0.293103	1.478926	0.098372	0.094376	1.469096	0.062830	0.049946	1.413431	0.108966	0.054517	1.465069	0.083723	0.106798	1.418985	0.078660	0.032985	1.499834	0.021340	0.055350	1.310553	0.051313	-0.159816	1.495657	0.026761	0.044500	1.435709	0.101513
3646	36.460000	-0.026638	1.598828	-0.065482	-0.054545	1.338285	-0.141053	-0.379240	1.318607	0.147413	-0.327572	1.264089	0.160238	-0.572663	1.184320	0.298731	-0.528315	1.190003	0.343608	-0.182434	1.506687	0.041800	-0.549096	1.244258	0.283716	-0.587005	1.218997	0.314417	-0.570284	1.221640	0.337343	-0.522124	1.248387	0.319796	-0.333344	1.424304	0.137855	-0.339675	1.403229	0.081564	-0.310770	1.449767	0.049384	-0.292636	1.473586	0.100178	0.093781	1.468757	0.062995	0.049750	1.412705	0.109164	0.054179	1.464539	0.084076	0.106599	1.418654	0.078702	0.032308	1.499519	0.021888	0.055453	1.310189	0.050943	-0.160322	1.493803	0.027931	0.044285	1.435006	0.101771
3647	36.470000	-0.027905	1.598684	-0.064333	-0.054995	1.338386	-0.141037	-0.376279	1.311044	0.146297	-0.323800	1.256893	0.157247	-0.566081	1.169758	0.295597	-0.521703	1.175662	0.340416	-0.183105	1.505460	0.042877	-0.543847	1.230211	0.282018	-0.580938	1.204036	0.312100	-0.563509	1.205651	0.333816	-0.516916	1.234953	0.317690	-0.331811	1.417491	0.138987	-0.338512	1.397760	0.082131	-0.310422	1.445434	0.050810	-0.292124	1.468250	0.102002	0.093351	1.468507	0.063339	0.049653	1.412040	0.109275	0.053740	1.464012	0.084404	0.106356	1.418313	0.078707	0.031616	1.499201	0.022446	0.055547	1.309829	0.050578	-0.160812	1.491950	0.029069	0.044068	1.434365	0.101988
3648	36.480000	-0.029185	1.598527	-0.063177	-0.055456	1.338481	-0.141010	-0.373211	1.303613	0.145087	-0.319946	1.249882	0.154145	-0.559245	1.155471	0.292256	-0.514859	1.161631	0.337033	-0.183782	1.504221	0.043958	-0.538506	1.216710	0.279617	-0.574812	1.189112	0.309408	-0.558606	1.191606	0.332143	-0.511450	1.221314	0.315195	-0.330157	1.410586	0.140065	-0.337175	1.392399	0.082698	-0.310074	1.441147	0.052293	-0.291514	1.462923	0.103817	0.092943	1.468271	0.063557	0.049570	1.411355	0.109389	0.053320	1.463525	0.084794	0.106113	1.417997	0.078710	0.030914	1.498878	0.023011	0.055632	1.309472	0.050221	-0.161282	1.490098	0.030177	0.043729	1.433967	0.102334
3649	36.490000	-0.030475	1.598355	-0.062018	-0.055932	1.338565	-0.140968	-0.370041	1.296324	0.143783	-0.316013	1.243070	0.150945	-0.552167	1.141473	0.288710	-0.507803	1.147934	0.333465	-0.184464	1.502974	0.045042	-0.532864	1.203368	0.276963	-0.568439	1.174502	0.306464	-0.551419	1.176591	0.328628	-0.505787	1.207827	0.312520	-0.328745	1.404133	0.141205	-0.335813	1.387065	0.083260	-0.309620	1.436950	0.053776	-0.290763	1.457679	0.105585	0.092580	1.467996	0.064040	0.049353	1.410760	0.109500	0.052878	1.463002	0.085115	0.105854	1.417691	0.078729	0.030202	1.498547	0.023580	0.055705	1.309116	0.049875	-0.161731	1.488257	0.031251	0.043344	1.433465	0.102650
3650	36.500000	-0.031774	1.598162	-0.060861	-0.056432	1.338629	-0.140903	-0.366769	1.289183	0.142387	-0.312002	1.236467	0.147656	-0.544863	1.127783	0.284966	-0.500550	1.134590	0.329721	-0.185150	1.501723	0.046131	-0.527038	1.190140	0.274112	-0.561869	1.160226	0.303270	-0.545538	1.162850	0.325599	-0.500016	1.195057	0.309826	-0.326578	1.397402	0.141606	-0.334351	1.381874	0.083782	-0.309258	1.432673	0.055292	-0.289931	1.452491	0.107296	0.091834	1.467554	0.064096	0.049100	1.410098	0.109629	0.052395	1.462460	0.085423	0.105527	1.417361	0.078806	0.029481	1.498208	0.024152	0.055763	1.308760	0.049547	-0.162160	1.486436	0.032290	0.043073	1.432719	0.102852
3651	36.510000	-0.033073	1.597949	-0.059714	-0.056944	1.338673	-0.140823	-0.363405	1.282204	0.140902	-0.307922	1.230086	0.144297	-0.537348	1.114420	0.281031	-0.493126	1.121621	0.325815	-0.185837	1.500473	0.047214	-0.521076	1.177414	0.270856	-0.555141	1.146280	0.299959	-0.537860	1.148263	0.321876	-0.494092	1.182308	0.306648	-0.324752	1.390871	0.142243	-0.332892	1.376709	0.084273	-0.308713	1.428549	0.056776	-0.289070	1.447256	0.108993	0.091215	1.467342	0.064407	0.048890	1.409554	0.109749	0.051966	1.461999	0.085727	0.105216	1.417063	0.078835	0.028753	1.497859	0.024723	0.055804	1.308403	0.049237	-0.162566	1.484637	0.033294	0.042915	1.431872	0.102861
3652	36.520000	-0.034373	1.597712	-0.058580	-0.057485	1.338690	-0.140714	-0.359947	1.275393	0.139333	-0.303770	1.223935	0.140878	-0.529641	1.101399	0.276921	-0.485545	1.109039	0.321756	-0.186526	1.499230	0.048299	-0.514982	1.164993	0.267907	-0.548172	1.132567	0.296251	-0.531326	1.135098	0.318307	-0.488073	1.170105	0.303508	-0.322796	1.384633	0.142996	-0.331240	1.371795	0.084813	-0.308214	1.424368	0.058124	-0.287920	1.442124	0.110518	0.090403	1.467366	0.065144	0.048647	1.409001	0.109899	0.051477	1.461608	0.086162	0.104894	1.416728	0.078888	0.028020	1.497499	0.025294	0.055823	1.308044	0.048952	-0.162954	1.482874	0.034260	0.042608	1.431323	0.103062
3653	36.530000	-0.035666	1.597453	-0.057464	-0.058045	1.338682	-0.140584	-0.356402	1.268760	0.137688	-0.299553	1.218022	0.137420	-0.521761	1.088741	0.272649	-0.477830	1.096861	0.317562	-0.187213	1.497999	0.049375	-0.508199	1.152429	0.263740	-0.540974	1.119249	0.292409	-0.525056	1.122442	0.314858	-0.481894	1.158221	0.299990	-0.320266	1.378376	0.143069	-0.329580	1.366733	0.085083	-0.307584	1.420288	0.059579	-0.286858	1.437050	0.112010	0.090023	1.467114	0.065401	0.048394	1.408407	0.110068	0.051074	1.460969	0.086456	0.104536	1.416404	0.078933	0.027282	1.497129	0.025860	0.055819	1.307681	0.048692	-0.163324	1.481150	0.035186	0.042121	1.430860	0.103395
